<?xml version="1.0" standalone="no"?> <!DOCTYPE svg PUBLIC "-//W3C//DTD SVG 1.0//EN" "http://www.w3.org/TR/2001/REC-SVG-20010904/DTD/svg10.dtd" > <svg xmlns="http://www.w3.org/2000/svg" width="100%" height="100%">
<defs >
<font id="monotypecorsiva" horiz-adv-x="717" ><font-face
    font-family="Monotype Corsiva"
    units-per-em="2048"
    panose-1="3 1 1 1 1 2 1 1 1 1"
    ascent="1618"
    descent="-620"
    alphabetic="0" />
<missing-glyph horiz-adv-x="1536" d="M256 0V1280H1280V0H256ZM288 32H1248V1248H288V32Z" />
<glyph unicode=" " glyph-name="space" horiz-adv-x="450" />
<glyph unicode="!" glyph-name="exclam" horiz-adv-x="573" d="M433 330H375Q440 807 468 1138Q469 1157 477 1165Q492 1179 534 1190Q603 1208 630 1208Q651 1208 651 1187Q651 1173 643 1150Q630 1112 555 824L433 330ZM379 216Q418 216 444 187T471 112Q471
47 440 10T362 -27Q323 -27 297 0T270 71Q270 134 307 181Q334 216 379 216Z" />
<glyph unicode="&quot;" glyph-name="quotedbl" horiz-adv-x="451" d="M565 683L643 1067Q659 1147 681 1172T733 1198Q753 1198 764 1187T775 1156Q775 1143 755 1084L619 693Q607 657 587 657Q560 657 565 683ZM306 683L383 1067Q400 1147 421 1172T474 1198Q494
1198 505 1187T516 1156Q516 1143 496 1084L360 693Q348 657 328 657Q301 657 306 683Z" />
<glyph unicode="#" glyph-name="numbersign" horiz-adv-x="1393" d="M476 27L589 377H345L381 487H625L703 731H458L495 841H739L846 1177H962L855 841H1083L1190 1177H1306L1198 841H1443L1407 731H1163L1085 487H1329L1293 377H1049L936 27H820L933 377H705L592
27H476ZM741 487H969L1047 731H819L741 487Z" />
<glyph unicode="$" glyph-name="dollar" horiz-adv-x="901" d="M768 1332H832L798 1191H820Q898 1191 948 1155T999 1078Q999 1053 980 1034T936 1015Q917 1015 903 1022Q894 1026 856 1060Q823 1090 777 1101L668 676Q765 590 803 521T841 383Q841 247 745 133T494
-14L428 -269H364L428 -25Q403 -27 380 -27Q261 -27 218 0T174 71Q174 98 193 118T236 138Q257 138 316 106Q360 82 374 78Q402 70 448 66L570 548Q478 631 447 689T416 821Q416 947 505 1050T731 1181L768 1332ZM713 1107Q622 1088 574 1030T526 897Q526 821 615
726L713 1107ZM514 70Q618 90 677 155T737 303Q737 350 719 385T625 502L514 70Z" />
<glyph unicode="%" glyph-name="percent" horiz-adv-x="1393" d="M489 -7Q574 135 635 245L1001 912Q1089 1075 1152 1198Q1176 1191 1232 1184Q1140 1035 1058 886L737 301Q649 141 573 -15Q554 -11 522 -9Q511 -9 489 -7ZM645 1198Q728 1198 780 1141T833 978Q833
803 725 668Q638 558 520 558Q438 558 385 616T331 772Q331 928 420 1063T645 1198ZM631 1156Q568 1156 514 1031T459 753Q459 675 483 638T538 601Q594 601 639 698Q705 840 705 1002Q705 1080 679 1124Q659 1156 631 1156ZM1206 625Q1289 625 1341 568T1394 405Q1394
230 1286 95Q1199 -15 1081 -15Q999 -15 946 43T892 199Q892 355 981 490T1206 625ZM1192 583Q1129 583 1075 458T1020 180Q1020 102 1044 65T1099 28Q1155 28 1200 125Q1266 267 1266 429Q1266 507 1240 551Q1220 583 1192 583Z" />
<glyph unicode="&amp;" glyph-name="ampersand" horiz-adv-x="1597" d="M1509 1138Q1480 1079 1462 1023T1403 800Q1335 514 1288 412Q1223 273 1097 155Q1224 16 1295 -24T1436 -64Q1514 -64 1568 -21T1622 74Q1622 93 1610 124Q1597 159 1597 176Q1597 204 1614
221T1657 239Q1685 239 1703 219T1721 160Q1721 42 1625 -48T1397 -139Q1339 -139 1282 -118T1172 -54Q1137 -25 1032 97Q873 -29 692 -29Q493 -29 363 97T233 410Q233 591 359 717T659 843Q754 843 802 806T851 719Q851 605 643 556Q732 522 810 458Q912 376 1051
211Q1094 262 1122 309T1177 433Q1195 480 1234 636Q1270 781 1285 824Q1318 919 1351 991T1430 1138Q1251 1139 1178 1105Q1074 1057 1074 969Q1074 943 1088 876Q1093 851 1093 835Q1093 811 1078 795T1038 779Q1010 779 991 803T972 872Q972 965 1030 1053T1184
1183T1454 1225Q1482 1225 1506 1224Q1593 1219 1603 1219Q1642 1219 1662 1235T1682 1278Q1682 1288 1676 1314Q1670 1338 1670 1348Q1670 1374 1686 1391T1726 1408Q1751 1408 1769 1387T1787 1330Q1787 1257 1717 1201T1509 1138ZM471 596Q611 593 662 622T713
699Q713 734 688 756T621 779Q522 779 441 693T360 491Q360 401 420 306T579 154T783 97Q885 97 990 157Q823 358 794 386Q737 441 662 488T471 580V596Z" />
<glyph unicode="&apos;" glyph-name="quotesingle" horiz-adv-x="328" d="M374 683L451 1067Q468 1147 489 1172T542 1198Q562 1198 573 1187T584 1156Q584 1143 564 1084L428 693Q416 657 396 657Q369 657 374 683Z" />
<glyph unicode="(" glyph-name="parenleft" horiz-adv-x="532" d="M971 1389Q971 1373 935 1358Q874 1332 735 1196T499 891T344 511T285 101Q285 -20 301 -118T348 -298Q396 -426 425 -475Q435 -492 435 -500Q435 -521 418 -521Q405 -521 386 -496Q304 -390 245
-200T186 177Q186 422 271 638T493 1040T827 1351Q922 1411 950 1411Q971 1411 971 1389Z" />
<glyph unicode=")" glyph-name="parenright" horiz-adv-x="451" d="M-145 -499Q-145 -482 -109 -467Q-48 -441 91 -305T327 0T482 380T541 790Q541 911 525 1009T478 1189Q430 1317 401 1366Q391 1383 391 1391Q391 1412 408 1412Q421 1412 440 1387Q522 1281
581 1091T640 714Q640 468 555 253T333 -149T-1 -460Q-96 -521 -124 -521Q-145 -521 -145 -499Z" />
<glyph unicode="*" glyph-name="asterisk" horiz-adv-x="860" d="M658 1412Q678 1294 722 1172Q755 1167 775 1167Q838 1167 970 1184Q980 1160 987 1135Q870 1071 774 994Q804 892 869 771Q850 756 829 742Q725 828 631 894Q542 841 435 742Q410 756 390 775Q453
896 488 994Q385 1072 280 1135Q287 1160 297 1184Q418 1170 479 1170Q499 1170 542 1172Q586 1302 602 1412L630 1413Q639 1413 658 1412ZM634 1152Q591 1152 561 1122T530 1048Q530 1005 560 974T634 943Q678 943 708 974T739 1048Q739 1091 709 1121T634 1152Z"
/>
<glyph unicode="+" glyph-name="plus" horiz-adv-x="1065" d="M661 643V1028H772V643H1159V532H772V141H661V532H274V643H661Z" />
<glyph unicode="," glyph-name="comma" horiz-adv-x="451" d="M56 -311L37 -246Q128 -176 177 -108Q209 -63 209 -34Q209 -5 185 40Q161 86 161 116Q161 154 188 182T252 210Q293 210 322 177T352 96Q352 42 322 -26T231 -160Q148 -250 56 -311Z" />
<glyph unicode="-" glyph-name="hyphen" horiz-adv-x="573" d="M194 460H657L633 361H168L194 460Z" />
<glyph unicode="." glyph-name="period" horiz-adv-x="451" d="M258 216Q297 216 323 187T350 112Q350 47 319 10T241 -27Q202 -27 176 0T149 71Q149 134 186 181Q213 216 258 216Z" />
<glyph unicode="/" glyph-name="slash" horiz-adv-x="696" d="M-23 -384L968 1385H1072L81 -384H-23Z" />
<glyph unicode="0" glyph-name="zero" horiz-adv-x="901" d="M703 1198Q846 1198 932 1093T1019 779Q1019 482 870 227T507 -29Q382 -29 296 80T209 377Q209 598 295 809T489 1109T703 1198ZM685 1139Q623 1139 559 1057T440 755T385 336Q385 176 431 103T538
30Q591 30 643 83Q720 162 782 380T844 820Q844 991 792 1076Q753 1139 685 1139Z" />
<glyph unicode="1" glyph-name="one" horiz-adv-x="901" d="M856 1209H888L750 669L635 168Q618 105 618 83Q618 66 635 56T712 39Q757 35 800 27L780 -23Q565 0 480 0Q356 0 211 -23L228 27Q280 41 347 55Q413 68 437 95Q470 130 506 263L614 676Q667 912 667
943Q667 978 638 978Q616 978 437 898L417 948Q677 1072 735 1112T856 1209Z" />
<glyph unicode="2" glyph-name="two" horiz-adv-x="901" d="M403 898L352 923Q431 1080 515 1140T705 1201Q831 1201 906 1121T981 934Q981 868 954 800T865 658Q825 609 645 455Q403 245 305 116Q436 122 575 122Q620 122 653 121Q726 118 753 135Q780 152 842
249H911Q830 137 770 -26Q699 -13 620 -7T454 0Q351 0 151 -13L171 50Q262 185 443 355Q622 523 674 590Q749 687 783 773Q809 837 809 897Q809 987 760 1041T639 1095Q579 1095 522 1052T403 898Z" />
<glyph unicode="3" glyph-name="three" horiz-adv-x="901" d="M426 964L385 993Q487 1109 535 1140Q622 1196 712 1196Q804 1196 857 1149T910 1028Q910 872 674 697Q755 693 797 668T865 592T892 469Q892 276 697 110Q530 -32 354 -32Q275 -32 212 4T148 93Q148
115 164 131T203 148Q233 148 272 111Q323 62 348 50Q383 33 410 33Q488 33 584 125Q726 259 726 421Q726 502 682 550T567 599Q516 599 451 576L458 638Q586 683 688 797Q760 877 760 959Q760 1021 729 1056T643 1091Q529 1091 426 964Z" />
<glyph unicode="4" glyph-name="four" horiz-adv-x="901" d="M932 408L911 303H756L684 -30H543L615 303Q290 305 201 300Q189 299 182 299Q153 299 153 320Q153 328 177 369Q291 563 503 790T949 1204H977L935 1043L847 693L780 408H932ZM637 408Q646 458 677
582L774 973Q579 788 489 686T274 408H637Z" />
<glyph unicode="5" glyph-name="five" horiz-adv-x="901" d="M1019 1225H1074L1003 1077Q993 1062 972 1054T878 1045Q664 1045 588 1034Q571 991 562 962T553 918Q553 880 612 855Q718 811 762 770T832 666T858 520Q858 307 690 141T316 -26Q220 -26 169 5Q133
28 133 68Q133 94 149 111T187 128Q201 128 209 125T249 101Q290 73 315 65T378 57Q516 57 625 173T735 431Q735 526 681 602Q627 678 526 719Q484 737 470 754T456 797Q456 826 489 929L557 1141Q595 1160 660 1165L874 1169Q947 1172 972 1183T1019 1225Z" />
<glyph unicode="6" glyph-name="six" horiz-adv-x="901" d="M1093 1200L1081 1140Q915 1133 799 1079T602 925T470 660Q526 706 583 728T698 751Q812 751 882 671T952 441Q952 235 831 95Q726 -27 563 -27Q425 -27 337 78T248 370Q248 592 363 790T665 1094T1093
1200ZM451 582Q424 426 424 325Q424 167 472 98T592 28Q670 28 716 103Q777 200 777 388Q777 543 735 607T632 672Q594 672 549 650T451 582Z" />
<glyph unicode="7" glyph-name="seven" horiz-adv-x="901" d="M429 922H378Q382 936 402 998Q440 1119 455 1186Q562 1169 805 1169Q970 1169 1126 1173Q792 748 707 621Q559 401 507 280Q482 222 468 118Q454 13 432 -16T375 -45Q344 -45 321 -19T298 45Q298
139 368 266Q468 449 821 883L951 1044H575Q508 1044 486 1027T429 922Z" />
<glyph unicode="8" glyph-name="eight" horiz-adv-x="901" d="M741 671Q911 501 911 351Q911 206 789 90T490 -27Q346 -27 272 51T197 223Q197 285 228 349T325 475Q376 523 559 635Q452 756 452 883Q452 1012 551 1105T794 1199Q900 1199 966 1141T1033 1004Q1033
925 972 849Q892 749 741 671ZM696 724Q836 821 878 879T921 989Q921 1048 878 1090T769 1133Q692 1133 638 1079T584 949Q584 844 696 724ZM602 590Q442 478 388 396T333 228Q333 146 390 90T531 33Q592 33 649 66T740 161T775 285Q775 342 742 408T602 590Z"
/>
<glyph unicode="9" glyph-name="nine" horiz-adv-x="901" d="M147 -26L159 33Q325 40 441 95T638 249T770 514Q715 468 658 445T542 422Q428 422 358 502T288 733Q288 938 409 1078Q514 1200 677 1200Q815 1200 903 1095T992 803Q992 582 877 384T575 79T147 -26ZM789
591Q816 747 816 848Q816 1007 768 1076T648 1145Q570 1145 524 1071Q463 973 463 785Q463 630 505 566T608 502Q647 502 692 524T789 591Z" />
<glyph unicode=":" glyph-name="colon" horiz-adv-x="532" d="M401 832Q440 832 466 803T493 729Q493 663 462 627T384 590Q345 590 319 617T292 688Q292 750 329 797Q356 832 401 832ZM258 216Q297 216 323 187T350 112Q350 47 319 10T241 -27Q202 -27 176 0T149
71Q149 134 186 181Q213 216 258 216Z" />
<glyph unicode=";" glyph-name="semicolon" horiz-adv-x="491" d="M413 832Q451 832 478 803T505 729Q505 663 474 627T396 590Q357 590 331 617T304 688Q304 750 341 797Q368 832 413 832ZM54 -311L35 -246Q126 -176 175 -108Q207 -63 207 -34Q207 -5 183 40Q159
86 159 116Q159 154 186 182T250 210Q291 210 320 177T350 96Q350 42 320 -26T229 -160Q146 -250 54 -311Z" />
<glyph unicode="&lt;" glyph-name="less" horiz-adv-x="1065" d="M1115 231V123L222 533V628L1115 1037V930L364 579L1115 231Z" />
<glyph unicode="=" glyph-name="equal" horiz-adv-x="1065" d="M1159 815V702H274V815H1159ZM1159 473V360H274V473H1159Z" />
<glyph unicode="&gt;" glyph-name="greater" horiz-adv-x="1065" d="M331 231L1082 579L331 930V1037L1224 628V533L331 123V231Z" />
<glyph unicode="?" glyph-name="question" horiz-adv-x="778" d="M340 329H276Q294 527 322 582Q341 621 409 643Q610 709 681 784Q751 858 751 948Q751 1020 713 1062T619 1104Q571 1104 498 1049Q467 1026 459 1022Q446 1017 431 1017Q406 1017 388 1035T369
1079Q369 1123 420 1161T548 1199Q668 1199 752 1111T836 887Q836 750 741 645Q681 577 518 516Q394 469 375 448T340 329ZM288 216Q327 216 353 187T380 112Q380 47 349 10T271 -27Q232 -27 206 0T179 71Q179 134 216 181Q243 216 288 216Z" />
<glyph unicode="@" glyph-name="at" horiz-adv-x="1434" d="M1131 1010L1188 1023Q1146 878 1106 722T1045 444Q1038 409 1038 394Q1038 373 1047 362T1072 350Q1110 350 1171 401Q1257 473 1305 574T1354 778Q1354 935 1253 1036T989 1137Q833 1137 700 1053T478
795T388 443Q388 326 442 218Q483 137 572 86T766 34Q992 34 1241 235L1275 195Q1020 -32 722 -32Q504 -32 382 87T259 411Q259 619 364 804T648 1099T1013 1208Q1145 1208 1257 1152T1428 1007T1488 825Q1488 679 1390 535T1130 306Q1014 246 948 246Q925 246
913 258T900 292Q900 320 939 441Q851 343 776 294T639 245Q599 245 567 289T534 406Q534 533 618 682T814 905T1054 979Q1075 979 1114 976L1131 1010ZM1028 879Q986 888 959 888Q883 888 820 843T709 689T662 468Q662 414 682 389T737 363Q773 363 807 383Q855
411 892 460T942 548L976 682L1028 879Z" />
<glyph unicode="A" glyph-name="A" horiz-adv-x="1270" d="M1299 44L1289 -13Q1253 -16 1226 -16Q1187 -16 1132 -10Q1038 0 1013 0Q971 0 884 -13Q915 65 936 151Q951 212 968 361Q851 362 605 356Q351 -32 233 -131T7 -231Q-49 -231 -76 -210T-104 -154Q-104
-128 -88 -111T-48 -94Q-34 -94 -10 -99Q50 -113 70 -113Q137 -113 218 -37Q350 87 608 483Q900 931 1081 1135Q834 1113 773 1093Q689 1066 647 1013T605 905Q605 887 618 854Q632 817 632 800Q632 778 615 761T574 744Q540 744 520 769T499 846Q499 918 536 985T644
1098T819 1168Q873 1181 1009 1191Q1127 1201 1157 1210Q1204 1223 1247 1261Q1217 1138 1204 1046L1126 468L1081 54Q1155 35 1214 35Q1253 35 1299 44ZM977 435Q1025 841 1073 1028Q946 860 916 816L659 435Q742 432 896 432Q934 432 977 435Z" />
<glyph unicode="B" glyph-name="B" horiz-adv-x="1229" d="M642 959L654 1007Q768 1015 900 1047Q865 944 849 881L795 658Q972 658 1061 746T1151 957Q1151 1042 1087 1094T894 1146Q713 1146 549 1060T294 836T202 558Q202 520 212 488T243 428Q255 412 296
384Q342 352 353 337T364 300Q364 279 349 264T311 248Q254 248 196 331T137 536Q137 704 237 861T522 1114T927 1209Q1107 1209 1200 1138T1294 965Q1294 868 1231 789T1040 666Q1128 652 1179 619T1257 534T1285 417Q1285 309 1222 213T1035 53T777 -11Q738 -11
610 -3Q549 0 482 0Q380 0 301 -16L316 39Q421 45 465 89T549 286L697 867Q706 904 706 923Q706 938 694 949T662 961Q654 961 642 959ZM779 598L728 397Q689 241 653 157Q632 107 599 72Q689 50 754 50Q929 50 1018 158T1108 399Q1108 465 1075 512T987 579T779
598Z" />
<glyph unicode="C" glyph-name="C" horiz-adv-x="1065" d="M1192 764H1138Q1143 842 1143 889Q1143 1030 1085 1085T937 1141Q818 1141 690 1045T470 744T378 323Q378 114 463 3T678 -109Q853 -109 999 101Q1014 122 1030 122Q1043 122 1052 114T1061 94Q1061
67 995 -12T827 -143T628 -196Q510 -196 409 -135T252 41T196 312Q196 531 310 748T597 1083T933 1201Q992 1201 1050 1188Q1075 1182 1256 1119Q1199 947 1192 764Z" />
<glyph unicode="D" glyph-name="D" horiz-adv-x="1434" d="M650 962L660 1005Q769 1014 917 1049Q874 938 841 797L775 518Q704 216 615 62Q701 45 767 45Q942 45 1072 118T1278 333T1355 644Q1355 867 1225 1002T885 1138Q708 1138 551 1054T303 832T211 562Q211
434 323 374Q355 356 364 343T374 311Q374 287 356 269T313 250Q260 250 210 320Q142 418 142 521Q142 693 244 853T530 1109T937 1204Q1213 1204 1376 1057T1540 686Q1540 479 1426 306T1151 59T828 -15Q776 -15 648 -5Q540 3 443 3Q398 3 306 0L329 49Q421 54
443 65T482 102Q511 148 561 302L630 563L710 889Q716 913 716 930Q716 946 706 955T678 965Q671 965 650 962Z" />
<glyph unicode="E" glyph-name="E" horiz-adv-x="1270" d="M1312 959H1259Q1267 1010 1267 1040Q1267 1080 1234 1092T981 1105L835 1104L724 662H931Q1029 662 1051 676T1084 749H1141Q1109 628 1084 483H1033Q1038 530 1038 556Q1038 567 1024 583Q1017 591
998 594Q971 599 914 599H709Q620 259 524 66Q617 95 689 95Q809 95 983 57Q1075 36 1108 36Q1152 36 1179 58T1206 108Q1206 124 1193 160Q1185 185 1185 207Q1185 230 1203 248T1248 266Q1279 266 1299 242T1320 178Q1320 93 1246 29T1049 -35Q985 -35 887 -24Q672
0 559 0Q411 0 213 -24L229 31Q347 64 368 79T403 125Q451 220 527 506T683 1110Q563 1110 456 1053T289 905T229 712Q229 669 237 637T276 547Q295 512 295 490Q295 468 277 451T231 434Q192 434 169 473Q135 530 135 628Q135 838 294 1005Q453 1172 757 1172H1100Q1278
1172 1363 1195Q1323 1029 1312 959Z" />
<glyph unicode="F" glyph-name="F" horiz-adv-x="1187" d="M1363 932H1309Q1326 1016 1326 1040Q1326 1073 1303 1089T1216 1105L1152 1104L1131 1105H931Q925 1082 899 988Q845 794 817 670H1012Q1083 670 1104 684Q1125 698 1139 755H1193Q1162 629 1139 492H1084Q1091
549 1091 559Q1091 583 1067 595Q1053 602 991 604H800Q771 465 724 304T643 55Q723 42 786 42Q827 42 867 49L850 -8Q821 -12 796 -12Q774 -12 658 -5Q589 0 541 0Q444 0 334 -18L346 37Q435 56 463 77T507 128Q538 189 623 506L776 1105Q642 1101 542 1045T382
895T322 703Q322 664 332 623Q337 600 360 557Q389 504 389 483Q389 462 372 447T328 431Q288 431 263 473Q229 529 229 632Q229 833 386 1002Q543 1170 800 1170H1184Q1248 1170 1325 1178Q1348 1180 1424 1199Q1373 990 1363 932Z" />
<glyph unicode="G" glyph-name="G" horiz-adv-x="1270" d="M1331 796H1277Q1282 843 1282 879Q1282 1014 1213 1076T1041 1138Q900 1138 758 1043T526 776T435 419Q435 230 524 141T725 52Q791 52 851 69T967 121Q1013 278 1013 330Q1013 355 995 369T929 384Q913
384 852 379L861 428Q905 436 950 436Q986 436 1039 434Q1080 433 1100 433Q1136 433 1210 439Q1249 442 1277 443L1266 392Q1216 393 1195 371T1151 253Q1069 -88 989 -240T807 -459T587 -526Q487 -526 426 -481T364 -385Q364 -358 383 -339T428 -320Q462 -320
505 -368Q554 -422 581 -438T640 -454Q703 -454 751 -405Q849 -308 944 44Q878 8 810 -10T671 -29Q495 -29 394 64Q259 188 259 410Q259 612 361 790T646 1083T993 1198Q1082 1198 1202 1170Q1323 1143 1386 1142Q1331 952 1331 796Z" />
<glyph unicode="H" glyph-name="H" horiz-adv-x="1393" d="M1380 45L1367 -12Q1316 -18 1289 -18Q1246 -18 1175 -11Q1099 -4 1045 -4Q1002 -4 956 -18Q997 97 1049 302L1126 602L856 592Q785 588 710 581Q642 314 570 186T406 -2T228 -63Q145 -63 86 -23Q43 5
43 47Q43 72 60 89T101 107Q140 107 181 52Q206 19 221 10T256 0Q334 0 402 126T603 749L701 1115Q501 1115 401 1049T300 900Q300 872 327 829Q351 789 351 764Q351 735 333 717T286 698Q251 698 226 731T201 829Q201 945 285 1034T529 1160Q621 1181 896 1181Q822
1035 731 665Q995 665 1147 684Q1234 974 1300 1088T1448 1254T1633 1305Q1721 1305 1768 1272T1816 1195Q1816 1170 1799 1154T1755 1138Q1720 1138 1676 1188Q1631 1238 1596 1238Q1521 1238 1448 1099Q1318 851 1147 52Q1164 50 1195 45Q1252 35 1287 35Q1328
35 1380 45Z" />
<glyph unicode="I" glyph-name="I" horiz-adv-x="778" d="M970 1183L953 1129Q840 1122 803 1101Q779 1087 763 1059Q744 1023 652 677Q622 563 499 54Q569 31 676 34L660 -14Q628 -15 532 -6Q463 0 371 0Q244 0 138 -19L150 34Q260 51 317 78Q331 85 339 95Q354
113 371 167T491 613Q521 726 613 1107Q544 1109 444 1088L463 1143Q505 1154 549 1158T748 1167Q893 1171 970 1183Z" />
<glyph unicode="J" glyph-name="J" horiz-adv-x="819" d="M1004 1180Q931 1018 849 729L700 208Q629 -42 502 -158Q374 -275 223 -275Q123 -275 62 -230T1 -131Q1 -106 19 -87T60 -68Q94 -68 133 -109Q186 -164 216 -179Q258 -200 292 -200Q328 -200 354 -184Q397
-158 429 -103T561 267Q645 529 724 811L811 1115L763 1117Q604 1117 500 1041T396 879Q396 849 422 810Q446 774 446 753Q446 727 427 708T380 688Q345 688 323 719T300 810Q300 922 379 1015T594 1152Q684 1181 867 1181Q893 1181 1004 1180Z" />
<glyph unicode="K" glyph-name="K" horiz-adv-x="1352" d="M1551 1180L1545 1155Q1464 1135 1411 1105T1268 996Q1029 787 852 675Q903 612 939 534T1064 175Q1144 -76 1227 -164Q1310 -252 1396 -252Q1479 -252 1509 -164Q1527 -112 1540 -100Q1558 -84 1580
-84Q1604 -84 1621 -100T1638 -140Q1638 -200 1567 -256T1387 -312Q1293 -312 1209 -264T1054 -113T911 206Q843 410 806 485T703 645L597 240Q565 117 557 64Q625 35 679 35Q692 35 716 37L703 -13Q683 -14 678 -14Q645 -14 584 -7Q520 0 479 0Q396 0 216 -32L222
16Q318 35 357 68T419 174Q472 336 557 661L679 1124Q481 1112 366 1034Q277 975 277 902Q277 876 302 836Q325 800 325 778Q325 751 305 731T258 710Q227 710 203 741T178 823Q178 962 316 1073T798 1185H863Q808 1042 791 978L711 675Q785 703 883 770T1073 914Q1240
1054 1263 1084Q1270 1094 1270 1101Q1270 1109 1250 1115T1134 1124L1147 1180Q1275 1168 1357 1168Q1441 1168 1551 1180Z" />
<glyph unicode="L" glyph-name="L" horiz-adv-x="1188" d="M98 -17L110 37Q215 57 250 83T314 175T392 450Q457 725 510 846Q591 1028 711 1116T955 1204Q1034 1204 1088 1164T1142 1081Q1142 1057 1126 1040T1086 1023Q1056 1023 1013 1062Q965 1104 939 1117T887
1130Q858 1130 830 1114Q791 1092 747 1031T654 848Q623 766 575 578Q500 279 461 181Q433 111 393 65Q536 97 621 97Q674 97 719 91T876 58Q973 35 1012 35Q1050 35 1076 58T1103 112Q1103 131 1089 165Q1076 197 1076 216Q1076 243 1092 258T1134 274Q1164 274
1185 248T1206 175Q1206 88 1134 25T939 -38Q878 -38 782 -29Q458 0 358 0Q211 0 98 -17Z" />
<glyph unicode="M" glyph-name="M" horiz-adv-x="1720" d="M944 -42L864 1034Q838 762 768 527T609 163T427 -18T243 -70Q188 -70 159 -48T129 7Q129 34 150 54T205 74Q229 74 274 63Q315 52 342 52Q389 52 440 87Q517 139 592 273T727 648T802 1118Q575 1118
433 1005Q320 915 320 804Q320 755 374 686Q403 649 403 626Q403 600 387 583T347 566Q308 566 278 610Q237 669 237 750Q237 864 313 968T525 1127T843 1183Q941 1183 1000 1201Q997 1111 997 1104Q997 1095 1000 1063L1059 303Q1300 724 1530 996Q1693 1189 1814
1257Q1745 1067 1666 756L1544 276Q1534 236 1517 159L1493 52Q1569 34 1632 34Q1683 34 1741 46L1728 -12Q1677 -21 1649 -21Q1608 -21 1531 -12Q1468 -4 1419 -4Q1367 -4 1301 -24Q1356 120 1416 363L1493 669Q1542 867 1578 941Q1498 850 1331 607Q1197 411
1031 111L944 -42Z" />
<glyph unicode="N" glyph-name="N" horiz-adv-x="1434" d="M915 1204L943 1087Q982 927 1020 807T1215 252Q1230 307 1275 496Q1333 742 1352 805Q1408 990 1460 1077T1576 1202T1721 1240Q1786 1240 1820 1215T1855 1155Q1855 1130 1837 1111T1793 1092Q1775
1092 1751 1102Q1701 1122 1691 1125Q1673 1129 1652 1129Q1603 1129 1568 1096Q1506 1038 1432 805T1242 60L1208 -89Q1094 162 1054 267Q1000 408 931 623L821 969Q801 849 728 565T640 237Q594 102 542 30T427 -75T289 -108Q195 -108 135 -66Q89 -35 89 13Q89
34 106 50T147 67Q178 67 214 34Q278 -25 331 -25Q388 -25 443 26Q525 104 601 353Q693 654 778 1117Q743 1117 644 1097T479 1041T377 946T341 823Q341 791 350 758Q356 736 376 704Q399 667 399 648Q399 624 382 607T338 590Q300 590 273 629T246 750Q246 884
313 978T494 1120Q566 1150 772 1178Q848 1188 915 1204Z" />
<glyph unicode="O" glyph-name="O" horiz-adv-x="1229" d="M899 1197Q1025 1197 1126 1139T1284 972T1340 719Q1340 531 1239 346T992 67T668 -27Q463 -27 337 101T210 438Q210 638 311 824T559 1104T899 1197ZM826 1125Q710 1125 613 1057T453 843T391 505Q391
285 488 166T730 46Q838 46 934 117T1093 340T1156 691Q1156 896 1061 1010T826 1125Z" />
<glyph unicode="P" glyph-name="P" horiz-adv-x="1106" d="M627 957L639 1002Q784 1016 887 1042Q862 972 833 859L759 578L851 572Q915 569 990 604T1125 727T1185 917Q1185 1018 1113 1077T891 1136Q721 1136 558 1052T307 836T218 576Q218 513 241 467T323
375Q372 339 372 305Q372 283 356 268T318 253Q259 253 204 334T149 539Q149 766 323 953Q551 1199 935 1199Q1081 1199 1174 1161T1314 1057T1361 914Q1361 816 1296 722T1103 569T819 511Q795 511 744 514L665 203Q645 124 620 47Q698 28 756 28Q829 28 913 56L901
0Q823 -21 769 -21Q717 -21 617 -10Q537 0 487 0Q390 0 288 -23L300 30Q404 47 442 79Q496 124 530 260L681 859Q691 901 691 918Q691 934 678 946T647 959Q640 959 627 957Z" />
<glyph unicode="Q" glyph-name="Q" horiz-adv-x="1229" d="M781 -17Q871 -101 948 -179Q1087 -319 1142 -360Q1220 -418 1277 -439T1381 -461Q1421 -461 1453 -449T1511 -413Q1526 -399 1550 -352Q1576 -301 1616 -301Q1636 -301 1651 -316T1666 -353Q1666 -407
1585 -457Q1472 -527 1327 -527Q1230 -527 1169 -507Q1085 -479 1010 -426T808 -242Q693 -124 658 -93T587 -40Q568 -28 496 0Q356 56 283 168T210 438Q210 710 397 954T880 1198Q1021 1198 1122 1142T1281 975T1340 727Q1340 482 1182 254T781 -17ZM826 1125Q710
1125 613 1057T453 843T391 505Q391 285 488 166T730 46Q838 46 934 117T1093 340T1156 691Q1156 896 1061 1010T826 1125Z" />
<glyph unicode="R" glyph-name="R" horiz-adv-x="1229" d="M737 572L603 41Q651 34 680 34Q724 34 789 49L779 0Q712 -14 675 -14Q636 -14 560 -7Q493 0 449 0Q369 0 264 -23L279 33Q389 61 422 88Q472 131 499 239L639 798Q665 905 665 924Q665 942 653 951T603
959L616 1007Q717 1008 858 1044Q846 1006 827 932L752 637Q800 627 833 627Q958 627 1047 714T1136 922Q1136 1015 1065 1075T870 1135Q713 1135 563 1059T338 871T263 635Q263 542 340 475Q379 442 388 427T397 395Q397 374 382 359T344 343Q290 343 248 406Q194
488 194 608Q194 762 279 895T536 1115T900 1202Q1078 1202 1193 1135T1308 937Q1308 814 1203 708T912 572Q958 480 971 448Q992 394 1035 266Q1136 -35 1244 -158Q1324 -248 1417 -248Q1513 -248 1540 -161Q1556 -106 1570 -93Q1589 -75 1613 -75Q1637 -75 1653
-92T1670 -133Q1670 -195 1602 -251T1427 -307Q1330 -307 1242 -260T1070 -106T924 151Q893 226 833 426Q797 548 788 572L763 574Q754 574 737 572Z" />
<glyph unicode="S" glyph-name="S" horiz-adv-x="942" d="M1029 811H977Q988 916 988 970Q988 1047 947 1091T834 1136Q724 1136 642 1057T560 878Q560 825 582 782T682 662Q823 524 867 446T911 294Q911 185 845 84T649 -82T375 -148Q233 -148 136 -74T38 82Q38
126 63 155T122 184Q156 184 178 157Q192 141 206 85Q222 17 245 -13T308 -63T397 -83Q540 -83 647 13T754 227Q754 267 741 306T691 396Q666 430 580 516Q495 600 473 631Q442 676 427 721T412 812Q412 903 473 995T631 1141T853 1196Q915 1196 1006 1177Q1058
1167 1096 1162Q1074 1097 1062 1040T1029 811Z" />
<glyph unicode="T" glyph-name="T" horiz-adv-x="1024" d="M991 57L977 0Q908 -15 864 -15Q822 -15 725 -6Q652 0 594 0Q494 0 388 -18L402 37Q503 47 549 79Q582 102 605 157T712 545L840 1075L847 1100Q788 1102 758 1102Q573 1102 465 1062T302 946T247 782Q247
751 258 725Q266 707 302 667Q336 630 336 599Q336 572 316 553T268 534Q226 534 200 574Q162 633 162 724Q162 846 237 961T445 1139T766 1202Q856 1202 1053 1176Q1193 1158 1256 1158Q1319 1158 1345 1179Q1371 1200 1371 1235Q1371 1242 1368 1263Q1365 1282
1365 1288Q1365 1315 1383 1333T1426 1351Q1456 1351 1475 1329T1495 1270Q1495 1194 1414 1139T1143 1084Q1075 1084 998 1090Q988 1054 935 846L848 500L795 289L740 48Q807 40 851 40Q918 40 991 57Z" />
<glyph unicode="U" glyph-name="U" horiz-adv-x="1515" d="M928 1195Q827 1017 729 742Q660 547 660 416Q660 270 730 189T907 108Q1007 108 1095 158Q1212 224 1311 359T1474 682T1537 1035Q1537 1149 1488 1251Q1462 1303 1459 1313Q1455 1327 1455 1343Q1455
1373 1473 1392T1519 1411Q1566 1411 1593 1361Q1632 1293 1632 1150Q1632 844 1498 541T1189 108T820 -22Q663 -22 579 82T495 340Q495 466 534 598Q585 771 745 1115Q620 1118 521 1085T379 999T335 896Q335 875 358 839Q382 798 382 775Q382 746 364 727T319
708Q286 708 262 738T237 816Q237 893 282 970T398 1095T575 1164Q627 1175 791 1184Q903 1190 928 1195Z" />
<glyph unicode="V" glyph-name="V" horiz-adv-x="1311" d="M643 -41L607 443Q596 591 596 638Q596 773 634 886T771 1130Q654 1130 533 1074T355 945T298 798Q298 764 319 726Q346 678 346 653Q346 630 332 616T296 602Q264 602 240 635Q210 679 210 744Q210 866
302 979T554 1146Q657 1181 854 1194Q907 1198 962 1204Q827 1006 786 874T745 514Q745 340 763 196L955 401L1119 569Q1367 824 1453 971Q1518 1082 1518 1173Q1518 1223 1495 1283Q1480 1321 1480 1341Q1480 1368 1500 1388T1549 1408Q1587 1408 1613 1369T1639
1247Q1639 1166 1605 1076T1462 845T1125 474Q886 232 643 -41Z" />
<glyph unicode="W" glyph-name="W" horiz-adv-x="1802" d="M1228 -88L1248 556Q1255 770 1288 958Q1230 887 1142 746Q879 323 575 -48Q553 85 540 263T526 575Q526 764 561 876T696 1123Q508 1102 398 1004T287 803Q287 765 308 726Q333 679 333 663Q333 637
317 620T276 603Q244 603 224 632Q197 670 197 730Q197 821 249 916T389 1072T587 1162Q648 1177 792 1193Q841 1199 889 1206Q672 902 672 592Q672 495 687 205Q746 276 794 342Q827 388 966 597Q1190 937 1301 1076Q1379 1172 1477 1255Q1381 878 1381 172L1632
483Q1733 609 1836 776T1973 1044Q1994 1109 1994 1167Q1994 1224 1968 1287Q1952 1327 1952 1345Q1952 1372 1971 1390T2021 1409Q2059 1409 2081 1375Q2113 1329 2113 1253Q2113 1152 2044 987T1735 505Q1427 100 1228 -88Z" />
<glyph unicode="X" glyph-name="X" horiz-adv-x="1147" d="M440 1100L452 1159Q487 1167 536 1167Q634 1167 655 1169Q695 1171 766 1181Q766 995 825 767Q970 966 1124 1129Q1219 1231 1302 1272Q1361 1301 1427 1301Q1475 1301 1498 1284T1521 1238Q1521 1210
1500 1194T1411 1172Q1316 1162 1257 1133T1119 1018Q989 877 847 685Q896 541 920 404T944 137Q944 98 942 53Q986 42 1029 42Q1069 42 1137 48L1125 -9Q1085 -12 1073 -12Q1046 -12 987 -6Q937 0 904 0Q872 0 788 -9Q800 60 800 113Q800 232 785 339T740 543L578
316Q368 25 259 -57T57 -139Q23 -139 4 -121T-16 -78Q-16 -52 4 -35T80 -10Q187 4 264 63Q366 141 525 360L716 624Q619 930 619 1114Q577 1116 558 1116Q506 1116 440 1100Z" />
<glyph unicode="Y" glyph-name="Y" horiz-adv-x="1147" d="M1090 59L1069 0Q1007 -16 963 -16Q916 -16 839 -8Q766 0 723 0Q662 0 536 -14L553 37Q647 61 671 89T751 328T807 607Q807 741 755 882T625 1110Q478 1056 415 1009T313 892T274 771Q274 720 320 676Q359
638 359 609Q359 583 344 566T305 549Q264 549 236 589Q198 644 198 721Q198 832 260 930T433 1094Q498 1133 647 1177Q702 1193 746 1210Q830 1109 881 973T951 634Q1137 1024 1305 1182T1580 1341Q1613 1341 1634 1322T1655 1275Q1655 1246 1631 1228T1535 1205Q1465
1200 1427 1177Q1352 1131 1251 1007T1050 697T899 310T843 47Q890 39 936 39Q1006 39 1090 59Z" />
<glyph unicode="Z" glyph-name="Z" horiz-adv-x="1270" d="M1127 1047Q1062 1032 993 1032Q882 1032 731 1075Q638 1101 613 1101Q570 1101 548 1084T525 1041Q525 1013 557 989Q590 963 598 949T607 915Q607 890 589 872T546 854Q506 854 477 891T448 991Q448
1079 514 1141T677 1203Q739 1203 825 1190Q1021 1160 1117 1160Q1215 1160 1304 1205Q1329 1217 1339 1217Q1352 1217 1362 1208T1373 1190Q1373 1159 1280 1076Q1183 990 1098 901L598 383L312 74Q528 136 638 136Q796 136 977 70Q1077 34 1117 34Q1163 34 1185
54T1208 112Q1208 132 1198 158Q1186 189 1186 203Q1186 231 1206 252T1253 273Q1283 273 1304 249T1326 183Q1326 86 1249 23T1074 -40Q1015 -40 868 -21Q700 0 507 0Q284 0 209 -31Q179 -43 164 -43Q153 -43 143 -34Q136 -26 136 -14Q136 15 174 51Q215 90 326
206Q417 303 608 494L908 800Q1018 912 1127 1047Z" />
<glyph unicode="[" glyph-name="bracketleft" horiz-adv-x="491" d="M523 1377H825L810 1314H619L256 -282H443L429 -344H129L523 1377Z" />
<glyph unicode="\" glyph-name="backslash" horiz-adv-x="983" d="M962 -384H858L428 1385H532L962 -384Z" />
<glyph unicode="]" glyph-name="bracketright" horiz-adv-x="655" d="M368 -344H66L80 -282H272L635 1314H447L462 1377H762L368 -344Z" />
<glyph unicode="^" glyph-name="asciicircum" horiz-adv-x="1065" d="M616 841H504L704 1169H811L1010 841H898L757 1041L616 841Z" />
<glyph unicode="_" glyph-name="underscore" horiz-adv-x="1024" d="M-12 -154H1036V-256H-12V-154Z" />
<glyph unicode="`" glyph-name="grave" horiz-adv-x="451" d="M311 1252H478L588 962H528L311 1252Z" />
<glyph unicode="a" glyph-name="a" horiz-adv-x="860" d="M856 858L922 872L847 619Q802 468 762 271Q740 164 740 133Q740 102 765 102Q781 102 816 123Q878 160 935 215L967 176Q853 72 821 50Q757 6 699 -15Q661 -29 625 -29Q599 -29 586 -17T573 18Q573 33
581 59L621 195Q535 92 416 18Q343 -28 282 -28Q224 -28 193 13Q151 68 151 157Q151 263 207 393T359 629T559 785Q640 823 767 823Q799 823 832 819L856 858ZM732 705Q678 716 641 716Q551 716 484 667T360 489T302 232Q302 164 325 134T385 104Q454 104 533 178T649
393L732 705Z" />
<glyph unicode="b" glyph-name="b" horiz-adv-x="860" d="M478 666Q559 755 637 796T776 838Q846 838 888 782T930 613Q930 449 853 292T663 53T441 -29Q349 -29 294 25T239 165Q239 234 266 357L384 886Q427 1080 492 1181T663 1343T864 1404Q921 1404 947 1385T974
1332Q974 1302 950 1282T882 1262Q849 1262 768 1277Q732 1284 704 1284Q654 1284 623 1230Q600 1188 560 1017L478 666ZM675 727Q626 727 559 668T431 460T371 166Q371 112 405 76T486 39Q597 39 684 214T771 564Q771 643 738 693Q715 727 675 727Z" />
<glyph unicode="c" glyph-name="c" horiz-adv-x="696" d="M723 217L744 159Q506 -28 342 -28Q255 -28 216 34T176 191Q176 349 260 516T464 772Q558 841 676 841Q750 841 788 813T826 745Q826 714 806 695T750 675Q715 675 660 707Q603 741 565 741Q516 741 468
697T375 524T331 267Q331 172 368 120Q395 80 444 80Q561 80 723 217Z" />
<glyph unicode="d" glyph-name="d" horiz-adv-x="901" d="M944 207L972 169Q838 56 773 19Q683 -32 631 -32Q607 -32 592 -19T577 12Q577 29 588 68L623 190Q503 61 423 15T279 -31Q226 -31 190 15T154 152Q154 294 251 478T468 751T687 840Q709 840 753 833Q800
1028 843 1117T954 1272T1109 1372T1273 1408Q1313 1408 1337 1387T1361 1334Q1361 1303 1339 1284T1279 1264Q1254 1264 1186 1274Q1118 1284 1093 1284Q1058 1284 1032 1263T981 1170Q965 1125 908 883L766 279Q741 172 741 137Q741 99 770 99Q788 99 812 112Q846
131 944 207ZM732 723Q652 741 619 741Q552 741 488 689T365 485T305 222Q305 171 332 139T395 106Q437 106 491 143Q568 198 613 277Q640 327 686 522L732 723Z" />
<glyph unicode="e" glyph-name="e" horiz-adv-x="696" d="M698 251L731 207Q486 -26 311 -26Q240 -26 203 22T165 176Q165 390 295 602Q441 843 644 843Q715 843 752 808T790 710Q790 645 745 582T584 451Q526 418 336 332Q327 278 327 229Q327 158 349 130T415
102Q456 102 505 125Q571 156 698 251ZM348 396Q509 468 590 551Q645 609 645 666Q645 709 623 734T564 760Q527 760 492 732Q445 695 413 620Q367 510 348 396Z" />
<glyph unicode="f" glyph-name="f" horiz-adv-x="655" d="M208 776H447Q506 1026 582 1148T780 1340T1010 1411Q1071 1411 1102 1387T1133 1330Q1133 1300 1112 1280T1057 1260Q1022 1260 925 1281Q877 1291 850 1291Q784 1291 731 1210T646 989L596 776H860L844
705H577L419 67Q346 -224 186 -374T-163 -524Q-226 -524 -258 -500T-291 -439Q-291 -408 -269 -390T-204 -371Q-183 -371 -142 -376Q-72 -385 -8 -385Q91 -385 136 -339T226 -111L429 705H190L208 776Z" />
<glyph unicode="g" glyph-name="g" horiz-adv-x="819" d="M847 848L928 866Q855 632 794 397Q750 229 733 117Q724 61 723 -25Q721 -169 691 -257Q649 -380 535 -455T263 -530Q128 -530 51 -467T-27 -321Q-27 -240 35 -170Q81 -117 227 -42Q301 -3 366 38Q292
0 251 0Q214 0 186 34T157 126Q157 310 266 491T530 764Q625 820 768 820Q796 820 837 818L847 848ZM735 700Q687 709 650 709Q555 709 487 659T371 491Q304 324 304 210Q304 163 330 131T390 99Q430 99 489 137T585 234T662 434L735 700ZM599 155Q531 94 337 -40Q166
-156 127 -207Q88 -259 88 -317Q88 -374 138 -419T261 -465Q329 -465 393 -432T504 -335T570 -191T589 21Q590 50 599 155Z" />
<glyph unicode="h" glyph-name="h" horiz-adv-x="901" d="M977 212L1003 175Q911 73 814 13Q748 -28 705 -28Q670 -28 649 0T627 87Q627 127 643 203T737 532Q771 656 771 677Q771 711 737 711Q695 711 632 669Q544 611 476 521Q433 463 407 349L327 1H178Q226
176 252 287L399 929Q439 1106 504 1201T675 1354T884 1411Q927 1411 952 1390T977 1337Q977 1310 953 1290T886 1269Q862 1269 824 1274Q738 1286 705 1286Q659 1286 630 1249T570 1075L458 581Q577 706 717 792Q799 843 849 843Q888 843 910 820T932 754Q932
720 924 686Q911 627 863 472Q798 258 787 206T775 113Q775 97 780 89T797 81Q821 81 887 138Q924 169 977 212Z" />
<glyph unicode="i" glyph-name="i" horiz-adv-x="491" d="M600 1271Q631 1271 651 1251T671 1198Q671 1154 641 1121T572 1087Q542 1087 522 1108T502 1163Q502 1208 531 1239T600 1271ZM206 609L162 643Q262 753 344 799T485 846Q517 846 534 832T551 794Q551
765 486 548Q380 193 380 120Q380 106 387 97T402 87Q434 87 566 211L605 173Q468 44 405 8T302 -28Q267 -28 247 -6T226 55Q226 180 376 666Q383 689 383 707Q383 727 365 727Q345 727 320 711T206 609Z" />
<glyph unicode="j" glyph-name="j" horiz-adv-x="451" d="M611 1271Q642 1271 662 1251T682 1198Q682 1154 652 1121T584 1087Q553 1087 533 1108T513 1163Q513 1208 542 1239T611 1271ZM213 601L175 644Q260 736 358 791T510 846Q532 846 546 833T561 798Q561
772 529 656L356 25Q269 -297 164 -410T-82 -524Q-152 -524 -189 -498T-227 -437Q-227 -413 -210 -396T-167 -379Q-139 -379 -87 -405Q-27 -435 5 -435Q59 -435 92 -385Q125 -336 191 -69Q259 204 306 375L376 627Q396 688 396 703Q396 711 390 717T376 723Q337
723 213 601Z" />
<glyph unicode="k" glyph-name="k" horiz-adv-x="901" d="M329 0H180L311 545Q406 950 435 1044T506 1199T610 1308T745 1381T873 1407Q925 1407 950 1387T976 1334Q976 1306 953 1286T895 1266Q851 1266 762 1281Q733 1287 711 1287Q680 1287 653 1265T604 1187T543
952L472 632Q568 741 671 800Q749 844 820 844Q870 844 904 807T939 712Q939 605 828 521T489 431Q566 397 612 357T702 245T817 5Q900 -195 971 -261Q1041 -327 1125 -327Q1174 -327 1206 -306T1238 -262Q1238 -248 1228 -224Q1217 -198 1217 -180Q1217 -157 1235
-139T1277 -121Q1305 -121 1325 -143T1345 -203Q1345 -275 1279 -331T1107 -387Q998 -387 912 -332T751 -156Q708 -86 601 163Q551 281 511 340Q480 386 426 431L329 0ZM434 473Q569 472 652 499T771 571T807 669Q807 707 787 730T737 753Q643 753 449 543L434
473Z" />
<glyph unicode="l" glyph-name="l" horiz-adv-x="491" d="M590 241L624 205Q546 117 440 45T264 -28Q233 -28 213 -5T193 60Q193 140 255 392L363 831Q422 1069 462 1150Q524 1273 637 1341T877 1409Q920 1409 944 1389T969 1339Q969 1307 945 1287T875 1266Q845
1266 790 1276Q742 1284 701 1284Q660 1284 639 1267Q610 1243 587 1166T510 862L411 443Q337 128 337 114Q337 82 360 82Q382 82 424 108Q507 160 590 241Z" />
<glyph unicode="m" glyph-name="m" horiz-adv-x="1270" d="M201 611L171 651Q270 750 359 797T499 844Q520 844 530 835T541 810Q541 790 525 733Q502 649 493 600Q733 844 860 844Q893 844 910 826T927 769Q927 727 897 626Q1011 745 1095 794T1226 844Q1268
844 1291 820T1314 746Q1314 716 1304 675T1231 425Q1152 166 1152 116Q1152 82 1180 82Q1199 82 1217 94Q1276 136 1338 198L1371 162Q1350 145 1292 92Q1212 20 1182 2Q1124 -32 1084 -32Q1054 -32 1031 -3T1008 79Q1008 127 1022 191T1104 481Q1155 650 1155
686Q1155 720 1125 720Q1100 720 1058 695Q972 643 914 568Q874 516 844 403Q777 156 744 0H602L751 611Q767 677 767 687Q767 703 759 711T736 720Q709 720 652 678Q553 607 510 541T435 338L358 0H215L328 477Q378 684 378 702Q378 725 360 725Q321 725 201 611Z"
/>
<glyph unicode="n" glyph-name="n" horiz-adv-x="942" d="M204 607L170 642Q298 764 374 804T504 844Q525 844 537 835T549 814Q549 805 544 782L499 581Q601 694 755 792Q837 843 890 843Q929 843 951 818T973 746Q973 715 964 676Q948 611 880 393Q816 189 816
122Q816 102 822 92T839 82Q868 82 930 138Q974 178 1018 212L1043 176Q951 74 852 12Q789 -28 748 -28Q710 -28 689 -1T668 89Q668 178 779 532Q813 658 813 679Q813 710 776 710Q736 710 673 668Q579 606 516 522Q476 468 449 350L368 1H219Q261 151 292 288L381
668Q386 691 386 701Q386 728 366 728Q350 728 320 707Q258 666 204 607Z" />
<glyph unicode="o" glyph-name="o" horiz-adv-x="819" d="M670 841Q768 841 833 763T898 546Q898 324 742 148T412 -29Q305 -29 240 41T174 232Q174 442 294 620Q445 841 670 841ZM585 766Q500 766 421 645T341 309Q341 179 390 104Q426 49 486 49Q570 49 639
153Q727 288 727 488Q727 638 687 702T585 766Z" />
<glyph unicode="p" glyph-name="p" horiz-adv-x="901" d="M189 593L150 633Q241 742 331 794T487 846Q512 846 526 834T541 797Q541 768 535 738T494 593Q647 746 703 782Q797 843 875 843Q926 843 961 795T996 650Q996 408 845 190T511 -28Q439 -28 367 11L282
-319Q274 -349 274 -368Q274 -405 302 -421Q345 -446 483 -462L470 -512Q309 -499 217 -499Q122 -499 -29 -512L-16 -462Q60 -454 94 -420T150 -299L331 460Q382 672 382 696Q382 722 357 722Q313 722 189 593ZM391 121Q470 42 553 42Q673 42 763 229T854 594Q854
651 829 680T760 710Q712 710 652 663Q559 590 510 518Q475 466 444 338L391 121Z" />
<glyph unicode="q" glyph-name="q" horiz-adv-x="819" d="M892 879H961Q908 722 822 371L649 -353Q645 -375 645 -394Q645 -421 665 -435T780 -464L763 -519Q660 -499 552 -499Q453 -499 281 -519L294 -464Q388 -457 426 -437T489 -375T544 -206L641 206Q542 91
427 23Q340 -29 277 -29Q227 -29 192 18T156 157Q156 381 338 613T744 846Q791 846 857 832L892 879ZM763 711Q691 731 637 731Q549 731 481 679T357 491T302 223Q302 165 328 133T393 101Q428 101 482 139Q582 209 633 284Q669 336 705 483L763 711Z" />
<glyph unicode="r" glyph-name="r" horiz-adv-x="614" d="M359 0H210L280 269Q331 467 369 645Q378 689 378 700Q378 724 356 724Q341 724 310 704T198 602L167 637Q263 740 358 791T505 843Q523 843 533 835T544 813Q544 800 531 744L488 565Q589 724 716 837Q777
891 818 891Q848 891 868 872T888 826Q888 799 869 780T771 735Q697 710 651 675T549 568T471 443T404 194L359 0Z" />
<glyph unicode="s" glyph-name="s" horiz-adv-x="655" d="M613 842Q702 842 750 808T799 728Q799 701 779 681T729 661Q710 661 696 669T656 712Q607 777 559 777Q518 777 487 746T455 667Q455 626 475 588T576 463Q687 345 687 239Q687 133 597 54T365 -26Q246
-26 188 22T130 142Q130 177 152 200T206 223Q234 223 254 205T274 161Q274 151 272 135Q271 122 271 113Q271 80 299 57Q326 34 373 34Q427 34 468 52T532 108T555 183Q555 219 534 255T437 374Q333 490 333 597Q333 695 412 768T613 842Z" />
<glyph unicode="t" glyph-name="t" horiz-adv-x="655" d="M454 995L613 1056L541 776H748L732 705H525L437 370Q396 219 396 160Q396 133 407 121T439 109Q470 109 534 146Q618 195 694 257L732 211Q513 46 439 9T320 -28Q283 -28 262 -1T240 87Q240 159 278 307L381
705H219L237 776H398L454 995Z" />
<glyph unicode="u" glyph-name="u" horiz-adv-x="942" d="M850 814H992L898 465Q815 161 815 119Q815 100 824 90T844 80Q861 80 884 95Q917 118 1009 211L1042 174Q841 -35 746 -35Q714 -35 692 -11T669 59Q669 111 691 198Q602 96 471 19Q384 -32 320 -32Q285
-32 265 -9T245 64Q245 103 254 148Q267 211 320 401Q387 642 387 690Q387 718 367 718Q349 718 318 700T212 610L168 645Q302 765 372 802T486 840Q510 840 525 823T540 768Q540 699 468 429Q404 186 404 152Q404 131 417 116T447 101Q503 101 606 193T741 404L850
814Z" />
<glyph unicode="v" glyph-name="v" horiz-adv-x="901" d="M635 746Q558 623 529 529T499 342Q499 256 537 73Q758 241 850 387T942 640Q942 671 919 718Q894 768 894 792Q894 818 912 837T955 857Q988 857 1008 829T1028 732Q1028 519 877 317Q692 69 408 -65Q401
-18 380 85Q339 292 339 373Q339 480 389 580T537 755Q361 752 285 716Q231 690 231 655Q231 641 245 608Q254 585 254 569Q254 553 241 541T207 528Q181 528 163 550T145 609Q145 668 184 715T319 790T573 815Q637 843 654 843Q670 843 683 830T696 802Q696 771
635 746Z" />
<glyph unicode="w" glyph-name="w" horiz-adv-x="1393" d="M587 813Q633 845 657 845Q676 845 688 833T700 802Q700 763 641 748L564 597Q535 534 521 471T506 342Q506 259 546 76Q700 178 833 349Q832 392 832 412Q832 632 897 759Q940 843 992 843Q1023 843
1043 817T1064 738Q1064 696 1048 641Q1021 551 984 476Q984 224 1022 76Q1142 158 1255 282Q1338 373 1381 471T1424 633Q1424 664 1402 713Q1377 770 1377 796Q1377 822 1396 840T1442 859Q1475 859 1494 828T1514 715Q1514 509 1335 283T898 -66Q866 43 839
258Q703 122 670 95Q604 40 543 2T411 -66Q404 -9 379 118Q344 297 344 374Q344 478 394 578T546 755Q365 750 288 713Q236 688 236 653Q236 640 248 611Q259 584 259 571Q259 553 246 540T213 527Q187 527 169 550T151 615Q151 695 223 745Q327 818 587 813Z"
/>
<glyph unicode="x" glyph-name="x" horiz-adv-x="860" d="M268 639L239 679Q345 769 424 811Q477 840 503 840Q541 840 564 802Q597 748 629 566Q753 748 848 817T1007 886Q1040 886 1060 867T1080 820Q1080 789 1052 769Q1032 755 943 749Q870 745 815 700Q727
627 645 487L709 188Q750 -9 795 -104T905 -250Q942 -279 987 -279Q1051 -279 1080 -201Q1099 -150 1141 -150Q1161 -150 1176 -166T1191 -208Q1191 -257 1136 -298T993 -339Q897 -339 810 -279T659 -85T541 340Q521 313 477 250Q351 72 282 21T150 -30Q106 -30
77 -6T48 53Q48 81 67 101T111 122Q137 122 164 88Q187 58 208 58Q222 58 239 67Q264 81 306 127Q366 192 398 239L522 422L481 609Q465 685 449 706T412 728Q397 728 370 712Q312 679 268 639Z" />
<glyph unicode="y" glyph-name="y" horiz-adv-x="819" d="M171 638L139 685L213 735Q321 809 365 830Q390 842 411 842Q432 842 451 818Q539 707 599 519T659 153Q659 130 657 83Q826 394 826 577Q826 615 809 678Q791 748 791 778Q791 807 809 826T856 845Q891
845 912 818T934 741Q934 612 875 420T690 6T459 -323T257 -477T72 -524Q6 -524 -27 -500T-61 -441Q-61 -411 -35 -390T35 -368Q69 -368 128 -381Q191 -395 214 -395Q275 -395 343 -344Q436 -274 490 -177T545 19Q545 158 505 353T390 651Q353 704 311 704Q262
704 171 638Z" />
<glyph unicode="z" glyph-name="z" horiz-adv-x="901" d="M806 737Q715 712 639 712Q597 712 546 717Q475 725 451 725Q421 725 405 711Q389 697 389 675Q389 641 425 638Q470 633 470 597Q470 580 456 567T424 553Q388 553 358 588T327 677Q327 745 384 794T525
843Q569 843 644 831Q765 812 818 812Q872 812 919 848Q941 864 955 864Q967 864 975 857T984 842Q984 832 973 820Q939 778 818 662L508 365Q372 235 282 155Q339 161 371 161Q416 161 453 154T572 119Q679 82 746 82Q788 82 810 101T833 151Q833 168 817 199Q803
229 803 245Q803 269 819 286T859 303Q888 303 907 280T927 219Q927 163 886 102T783 7T630 -26Q555 -26 411 17Q291 52 235 52Q201 52 156 16Q130 -6 111 -6Q74 -6 74 12Q74 29 95 53Q151 119 379 326Q533 466 649 581L806 737Z" />
<glyph unicode="{" glyph-name="braceleft" horiz-adv-x="491" d="M862 1378L854 1344Q724 1333 673 1270Q606 1185 548 916Q500 687 487 652Q463 585 427 549Q400 522 350 508Q419 466 419 396Q419 367 411 328Q407 302 361 127Q311 -63 303 -111T294 -198Q294
-250 335 -284T458 -321L450 -359Q295 -356 237 -314T178 -195Q178 -112 252 164Q304 363 304 400Q304 444 284 469T208 508Q267 515 304 544T358 612Q369 640 421 861Q483 1123 506 1184Q542 1281 618 1328T862 1378Z" />
<glyph unicode="|" glyph-name="bar" horiz-adv-x="1065" d="M667 -499V1408H778V-499H667Z" />
<glyph unicode="}" glyph-name="braceright" horiz-adv-x="491" d="M-78 -359L-71 -325Q60 -314 110 -251Q178 -167 235 103Q284 332 297 367Q321 434 357 470Q384 496 434 511Q365 552 365 623Q365 652 372 691Q377 717 423 891Q472 1081 481 1130T490 1216Q490
1269 449 1302T326 1340L334 1378Q489 1374 547 1332T606 1214Q606 1131 532 855Q479 656 479 619Q479 575 500 550T575 511Q517 504 479 475T426 407Q415 379 363 158Q301 -104 278 -166Q242 -262 166 -309T-78 -359Z" />
<glyph unicode="~" glyph-name="asciitilde" horiz-adv-x="1065" d="M1104 734L1166 665Q1105 559 1044 516T919 473Q892 473 858 482T682 548Q572 592 530 592Q480 592 439 560T343 434L281 506Q352 627 408 668T531 709Q593 709 747 645Q882 590 920 590Q1018
590 1104 734Z" />
</font>
</defs>
</svg>
